<svg width="48" height="48" viewBox="0 0 48 48" fill="none" xmlns="http://www.w3.org/2000/svg">
<g clip-path="url(#clip0_1_219)">
<mask id="mask0_1_219" style="mask-type:alpha" maskUnits="userSpaceOnUse" x="0" y="0" width="48" height="48">
<path d="M48 24C48 10.7452 37.2548 0 24 0C10.7452 0 0 10.7452 0 24C0 37.2548 10.7452 48 24 48C37.2548 48 48 37.2548 48 24Z" fill="white"/>
</mask>
<g mask="url(#mask0_1_219)">
<path d="M48 0H0V48H48V0Z" fill="#45AFEA"/>
<path d="M57.2174 21.7384C52.2306 8.0374 37.0812 0.9731 23.3802 5.95986C9.67913 10.9466 2.61483 26.0961 7.6016 39.7971C12.5884 53.4981 27.7378 60.5624 41.4388 55.5756C55.1398 50.5889 62.2041 35.4394 57.2174 21.7384Z" fill="#98DAFF"/>
<path d="M14.6667 22.6667C17.3334 24 20.0001 24 22.6667 22.6667" stroke="#064061" stroke-width="2.22222" stroke-linecap="round"/>
<path d="M15.3334 16C15.3334 15.2636 14.8857 14.6667 14.3334 14.6667C13.7811 14.6667 13.3334 15.2636 13.3334 16C13.3334 16.7364 13.7811 17.3334 14.3334 17.3334C14.8857 17.3334 15.3334 16.7364 15.3334 16Z" fill="#064061"/>
<path d="M23.3334 16C23.3334 15.2636 22.8857 14.6667 22.3334 14.6667C21.7811 14.6667 21.3334 15.2636 21.3334 16C21.3334 16.7364 21.7811 17.3334 22.3334 17.3334C22.8857 17.3334 23.3334 16.7364 23.3334 16Z" fill="#064061"/>
</g>
</g>
<defs>
<clipPath id="clip0_1_219">
<rect width="48" height="48" fill="white"/>
</clipPath>
</defs>
</svg>
